<svg xmlns="http://www.w3.org/2000/svg" viewBox="0 0 24 24" width="24" height="24">
  <path d="M12 0C8.743 0 8.333.012 7.053.072 5.775.132 4.701.285 3.735.607a6.845 6.845 0 00-2.546 1.488 6.845 6.845 0 00-1.487 2.546c-.322.965-.475 2.039-.535 3.317C.012 8.333 0 8.743 0 12s.012 3.667.072 4.947c.06 1.278.213 2.352.535 3.317a6.845 6.845 0 001.487 2.546 6.845 6.845 0 002.546 1.487c.965.322 2.039.475 3.317.535C8.333 23.988 8.743 24 12 24s3.667-.012 4.947-.072c1.278-.06 2.352-.213 3.317-.535a6.845 6.845 0 002.546-1.487 6.845 6.845 0 001.487-2.546c.322-.965.475-2.039.535-3.317.06-1.278.072-1.688.072-4.947s-.012-3.667-.072-4.947c-.06-1.278-.213-2.352-.535-3.317a6.845 6.845 0 00-1.487-2.546 6.845 6.845 0 00-2.546-1.487c-.965-.322-2.039-.475-3.317-.535C15.667.012 15.257 0 12 0zm0 5.838a6.162 6.162 0 016.162 6.162A6.162 6.162 0 0112 18.162 6.162 6.162 0 015.838 12 6.162 6.162 0 0112 5.838zm0 1.455a4.708 4.708 0 00-4.708 4.707A4.708 4.708 0 0012 16.707a4.708 4.708 0 004.708-4.707A4.708 4.708 0 0012 7.293zm6.406-1.592a1.454 1.454 0 110-2.909 1.454 1.454 0 010 2.909z" fill="#E1306C"/>
</svg>
