<svg xmlns="http://www.w3.org/2000/svg" viewBox="0 0 24 24" width="24" height="24">
  <path d="M22.23 0H1.77C.792 0 0 .775 0 1.733v20.535C0 23.225.792 24 1.77 24h20.46C23.208 24 24 23.225 24 22.268V1.733C24 .775 23.208 0 22.23 0zM7.125 20.452H3.531V9.066h3.594v11.386zm-1.793-12.94h-.025c-1.205 0-1.98-.832-1.98-1.875 0-1.068.803-1.875 2.034-1.875 1.23 0 1.98.807 2.005 1.875 0 1.043-.78 1.875-2.034 1.875zm13.62 12.94h-3.584v-6.055c0-1.526-.545-2.57-1.904-2.57-1.04 0-1.66.696-1.932 1.367-.1.244-.12.583-.12.922v6.336h-3.584s.048-10.28 0-11.386h3.584v1.614c-.007.011-.015.022-.022.034h.022V10.6c.477-.733 1.33-1.779 3.238-1.779 2.364 0 4.142 1.544 4.142 4.866v6.764z" fill="#0A66C2"/>
</svg>
