<svg xmlns="http://www.w3.org/2000/svg" viewBox="0 0 24 24" width="24" height="24">
  <path d="M24 4.557a9.83 9.83 0 01-2.828.775 4.932 4.932 0 002.165-2.724 9.864 9.864 0 01-3.127 1.195 4.918 4.918 0 00-8.384 4.482 13.944 13.944 0 01-10.125-5.14 4.922 4.922 0 001.523 6.573 4.9 4.9 0 01-2.229-.616c-.054 2.18 1.522 4.217 3.771 4.675a4.936 4.936 0 01-2.224.084 4.923 4.923 0 004.6 3.417A9.868 9.868 0 010 21.543a13.901 13.901 0 007.548 2.212c9.056 0 14.01-7.496 14.01-13.986 0-.214-.005-.426-.015-.637A10.025 10.025 0 0024 4.557z" fill="#1DA1F2"/>
</svg>
